<svg xmlns="http://www.w3.org/2000/svg" width="1024" height="1024" viewBox="0 0 1024 1024">
<rect width="100%" height="100%" fill="#0B3D91"/>
<g transform="translate(512,512)">
<path d="
M 0,-177
A 177,177 0 1,1 0,177
A 177,177 0 1,1 0,-177
M 0,-144
A 144,144 0 1,0 0,144
A 144,144 0 1,0 0,-144
" fill="#F3F8FF" fill-rule="evenodd"/>
<g transform="rotate(0)"><path d="M 144,-16.5 L 404.5,-16.5 A 16.5,16.5 0 0 1 404.5,16.5 L 144,16.5 Z" fill="#F3F8FF"/></g>
<g transform="rotate(45)"><path d="M 144,-16.5 L 337.5,-16.5 A 16.5,16.5 0 0 1 337.5,16.5 L 144,16.5 Z" fill="#F3F8FF"/></g>
<g transform="rotate(90)"><path d="M 144,-16.5 L 404.5,-16.5 A 16.5,16.5 0 0 1 404.5,16.5 L 144,16.5 Z" fill="#F3F8FF"/></g>
<g transform="rotate(135)"><path d="M 144,-16.5 L 337.5,-16.5 A 16.5,16.5 0 0 1 337.5,16.5 L 144,16.5 Z" fill="#F3F8FF"/></g>
<g transform="rotate(180)"><path d="M 144,-16.5 L 404.5,-16.5 A 16.5,16.5 0 0 1 404.5,16.5 L 144,16.5 Z" fill="#F3F8FF"/></g>
<g transform="rotate(225)"><path d="M 144,-16.5 L 337.5,-16.5 A 16.5,16.5 0 0 1 337.5,16.5 L 144,16.5 Z" fill="#F3F8FF"/></g>
<g transform="rotate(270)"><path d="M 144,-16.5 L 404.5,-16.5 A 16.5,16.5 0 0 1 404.5,16.5 L 144,16.5 Z" fill="#F3F8FF"/></g>
<g transform="rotate(315)"><path d="M 144,-16.5 L 337.5,-16.5 A 16.5,16.5 0 0 1 337.5,16.5 L 144,16.5 Z" fill="#F3F8FF"/></g>
</g></svg>
